<svg width="54" height="46" viewBox="0 0 54 46" fill="none" xmlns="http://www.w3.org/2000/svg">
<path d="M26.6667 21.3333C32.5577 21.3333 37.3333 16.5577 37.3333 10.6667C37.3333 4.77563 32.5577 0 26.6667 0C20.7756 0 16 4.77563 16 10.6667C16 16.5577 20.7756 21.3333 26.6667 21.3333Z" fill="white"/>
<path d="M13.3332 10.6668C13.3332 7.32012 14.5732 4.26679 16.6132 1.92012C15.9865 1.78679 15.3332 1.70679 14.6665 1.70679C9.59983 1.70679 5.49316 5.81345 5.49316 10.8801C5.49316 15.9468 9.59983 20.0535 14.6665 20.0535C15.4532 20.0535 16.1998 19.9468 16.9198 19.7601C14.7065 17.3735 13.3332 14.1868 13.3332 10.6668Z" fill="#FABB18"/>
<path d="M38.6664 1.70679C37.9998 1.70679 37.3464 1.78679 36.7198 1.92012C38.7598 4.26679 39.9998 7.32012 39.9998 10.6668C39.9998 14.1868 38.6264 17.3735 36.4131 19.7468C37.1331 19.9335 37.8931 20.0401 38.6664 20.0401C43.7331 20.0401 47.8398 15.9335 47.8398 10.8668C47.8398 5.81345 43.7331 1.70679 38.6664 1.70679Z" fill="#FABB18"/>
<path d="M26.6667 45.3333C36.976 45.3333 45.3333 40.5577 45.3333 34.6667C45.3333 28.7756 36.976 24 26.6667 24C16.3574 24 8 28.7756 8 34.6667C8 40.5577 16.3574 45.3333 26.6667 45.3333Z" fill="white"/>
<path d="M5.33333 34.6668C5.33333 29.2002 11.6133 24.5868 20.28 23.0268C18.5467 22.5735 16.6533 22.3335 14.6667 22.3335C6.56 22.3335 0 26.4402 0 31.5068C0 34.7868 2.77333 37.6668 6.92 39.2802C5.90667 37.8535 5.33333 36.2935 5.33333 34.6668Z" fill="white"/>
<path d="M38.6666 22.3335C36.6799 22.3335 34.7866 22.5868 33.0532 23.0268C41.7199 24.5868 47.9999 29.2002 47.9999 34.6668C47.9999 36.2935 47.4266 37.8535 46.4132 39.2802C50.5599 37.6668 53.3332 34.7868 53.3332 31.5068C53.3332 26.4402 46.7732 22.3335 38.6666 22.3335Z" fill="white"/>
</svg>
