<svg width="51" height="54" viewBox="0 0 51 54" fill="none" xmlns="http://www.w3.org/2000/svg">
<circle cx="25" cy="27" r="13" fill="white"/>
<path d="M45.7664 26.6667C45.7664 25.56 45.671 24.4933 45.4803 23.44C45.2895 22.3467 45.8073 21.2533 46.802 20.6933L49.2955 19.28C50.6035 18.5467 51.0395 16.9067 50.2901 15.64L47.565 11.0267C46.8156 9.74667 45.1396 9.32 43.8452 10.0533L41.3517 11.4533C40.3707 12 39.158 11.9067 38.286 11.2C36.5828 9.82667 34.6479 8.73333 32.536 7.96C31.4732 7.57333 30.7783 6.58667 30.7783 5.48V2.66667C30.7783 1.2 29.5519 0 28.0531 0H22.6029C21.1041 0 19.8778 1.2 19.8778 2.66667V5.48C19.8778 6.58667 19.1829 7.57333 18.1201 7.96C16.0217 8.73333 14.0733 9.82667 12.3701 11.2C11.498 11.9067 10.2717 12 9.3043 11.4533L6.81081 10.0533C5.50275 9.30667 3.84043 9.74667 3.09102 11.0267L0.365898 15.64C-0.38351 16.92 0.0661349 18.5467 1.36057 19.28L3.85405 20.6933C4.8351 21.2533 5.3665 22.3467 5.17574 23.44C4.9986 24.4933 4.8896 25.5733 4.8896 26.6667C4.8896 27.76 4.98498 28.84 5.17574 29.8933C5.3665 30.9867 4.84872 32.08 3.85405 32.64L1.36057 34.0533C0.0525093 34.7867 -0.38351 36.4267 0.365898 37.6933L3.09102 42.3067C3.84043 43.5867 5.51638 44.0133 6.81081 43.28L9.3043 41.88C10.2717 41.3333 11.498 41.4267 12.3701 42.1333C14.0733 43.5067 16.0081 44.6 18.1201 45.3733C19.1829 45.76 19.8778 46.7467 19.8778 47.8533V50.6667C19.8778 52.1333 21.1041 53.3333 22.6029 53.3333H28.0531C29.5519 53.3333 30.7783 52.1333 30.7783 50.6667V47.8533C30.7783 46.7467 31.4732 45.76 32.536 45.3733C34.6343 44.6 36.5828 43.5067 38.286 42.1333C39.158 41.4267 40.3843 41.3333 41.3653 41.88L43.8588 43.28C45.1669 44.0133 46.8292 43.5733 47.5786 42.3067L50.3037 37.6933C51.0532 36.4133 50.6035 34.7867 49.3091 34.0533L46.8156 32.64C45.8345 32.08 45.3032 30.9867 45.4939 29.8933C45.671 28.84 45.7664 27.7733 45.7664 26.6667ZM25.328 34.6667C20.8179 34.6667 17.1526 31.08 17.1526 26.6667C17.1526 22.2533 20.8179 18.6667 25.328 18.6667C29.8381 18.6667 33.5034 22.2533 33.5034 26.6667C33.5034 31.08 29.8381 34.6667 25.328 34.6667Z" fill="black"/>
</svg>
