<svg width="56" height="56" viewBox="0 0 56 56" fill="none" xmlns="http://www.w3.org/2000/svg">
<path d="M28 9.33334C24.3081 9.33334 20.6991 10.4281 17.6294 12.4792C14.5597 14.5304 12.1671 17.4457 10.7543 20.8566C9.34146 24.2675 8.9718 28.0207 9.69206 31.6417C10.4123 35.2627 12.1901 38.5888 14.8007 41.1993C17.4113 43.8099 20.7374 45.5877 24.3584 46.308C27.9793 47.0282 31.7326 46.6586 35.1435 45.2458C38.5544 43.8329 41.4697 41.4404 43.5208 38.3706C45.5719 35.3009 46.6667 31.6919 46.6667 28C46.6613 23.051 44.6929 18.3062 41.1934 14.8067C37.6939 11.3072 32.9491 9.33878 28 9.33334ZM16.9624 41.1451C18.0703 39.1943 19.6755 37.5719 21.6143 36.4433C23.5532 35.3147 25.7566 34.7201 28 34.7201C30.2435 34.7201 32.4469 35.3147 34.3858 36.4433C36.3246 37.5719 37.9298 39.1943 39.0376 41.1451C35.9481 43.7466 32.039 45.1733 28 45.1733C23.9611 45.1733 20.0519 43.7466 16.9624 41.1451ZM40.1651 40.1091C38.3102 37.0079 35.3364 34.7363 31.8566 33.7624C33.4745 32.9019 34.7583 31.5251 35.5035 29.851C36.2488 28.1768 36.4127 26.3015 35.9693 24.5235C35.5259 22.7454 34.5006 21.1667 33.0565 20.0385C31.6125 18.9103 29.8326 18.2975 28 18.2975C26.1675 18.2975 24.3876 18.9103 22.9435 20.0385C21.4995 21.1667 20.4742 22.7454 20.0308 24.5235C19.5874 26.3015 19.7513 28.1768 20.4966 29.851C21.2418 31.5251 22.5256 32.9019 24.1435 33.7624C20.6636 34.7363 17.6899 37.0079 15.835 40.1091C13.4394 37.7049 11.8099 34.6448 11.1522 31.3152C10.4946 27.9856 10.8382 24.5357 12.1398 21.4013C13.4414 18.2669 15.6426 15.5884 18.4654 13.7041C21.2882 11.8197 24.6061 10.8141 28 10.8141C31.394 10.8141 34.7118 11.8197 37.5347 13.7041C40.3575 15.5884 42.5586 18.2669 43.8603 21.4013C45.1619 24.5357 45.5055 27.9856 44.8479 31.3152C44.1902 34.6448 42.5607 37.7049 40.1651 40.1091ZM28 33.2267C26.671 33.2267 25.3717 32.8325 24.2666 32.0941C23.1615 31.3557 22.3002 30.3062 21.7916 29.0783C21.283 27.8504 21.1499 26.4992 21.4092 25.1957C21.6685 23.8921 22.3085 22.6947 23.2483 21.7549C24.1881 20.8151 25.3855 20.1751 26.689 19.9158C27.9926 19.6565 29.3438 19.7896 30.5717 20.2982C31.7996 20.8068 32.8491 21.6681 33.5875 22.7732C34.3259 23.8783 34.72 25.1776 34.72 26.5067C34.72 28.2889 34.012 29.9982 32.7518 31.2584C31.4916 32.5187 29.7823 33.2267 28 33.2267Z" fill="black"/>
</svg>
